<svg id="Layer_1" data-name="Layer 1" xmlns="http://www.w3.org/2000/svg" viewBox="0 0 124.72 18.48"><defs><style>.cls-1,.cls-3{fill:#262b40;}.cls-2,.cls-4{fill:#f8bd7a;}.cls-3{font-size:16.29px;}.cls-3,.cls-4{font-family:Haettenschweiler;}.cls-4{font-size:16.29px;}</style></defs><path class="cls-1" d="M6.49,11.53c.57.42,1.06.8,1.58,1.16.27.18.42.38.35.68a1.26,1.26,0,0,0,.74,1.4c.62.4,1.17.87,1.75,1.32a.27.27,0,0,0,.4,0c.76-.59,1.53-1.17,2.3-1.74a.49.49,0,0,0,.21-.42c0-.43,0-.86,0-1.3a.55.55,0,0,0-.25-.5C11.29,10.41,9,8.67,6.76,6.94a.59.59,0,0,1-.28-.52c0-1,0-1.9,0-2.85a.44.44,0,0,1,.21-.39c1.4-1,2.81-2.05,4.2-3.08a.32.32,0,0,1,.46,0q2.07,1.53,4.16,3a.49.49,0,0,1,.24.45c0,1,0,2,0,3v.31l-.39-.27c-.46-.34-.93-.68-1.38-1a.47.47,0,0,1-.16-.3c0-.32,0-.64,0-1A.35.35,0,0,0,13.7,4c-.85-.66-1.7-1.3-2.58-2l-1.35,1c-.4.3-.8.59-1.18.9a.45.45,0,0,0-.16.29c0,.51,0,1,0,1.51a.57.57,0,0,0,.21.33l6.88,5.25a.49.49,0,0,1,.23.45c0,1,0,2,0,2.93a.42.42,0,0,1-.13.31l-4.42,3.37-.09,0-.75-.56C9.14,17,7.93,16.07,6.71,15.16a.48.48,0,0,1-.23-.44C6.49,13.69,6.49,12.65,6.49,11.53Z"/><path class="cls-2" d="M20.53,4.49v.33c0,2.39,0,4.79,0,7.19a.47.47,0,0,1-.21.41c-.57.41-1.12.84-1.73,1.29V8.2l-2.82,2.12-2-1.52C13,8.19,12.14,7.57,11.33,7a.42.42,0,0,1-.2-.37c0-.65,0-1.3,0-2l.3.21c1.35,1,2.7,2,4,3.06a.39.39,0,0,0,.6,0l4.23-3.21Z"/><path class="cls-2" d="M1.71,4.43l1.36,1,7.83,5.89a.42.42,0,0,1,.21.39c0,.65,0,1.31,0,2L3.67,8.15v5.52l-.25-.17c-.38-.29-.74-.62-1.15-.88a1.09,1.09,0,0,1-.57-1.08c0-2.27,0-4.54,0-6.81Z"/><text class="cls-3" transform="translate(23.55 15) scale(1.65 1)">SAHIB</text><text class="cls-4" transform="translate(72.6 15.09) scale(1.48 1)">MONEY</text></svg>