<svg id="Layer_1" data-name="Layer 1" xmlns="http://www.w3.org/2000/svg" viewBox="0 0 1248 1080"><defs><style>.cls-1,.cls-2{fill:#eae8e8;}.cls-2{font-size:124.71px;font-family:CopperplateGothic-Bold, Copperplate Gothic Bold;font-weight:700;}</style></defs><path class="cls-1" d="M67.58,541.88c5.61,4.11,10.51,7.91,15.67,11.41,2.67,1.82,4.12,3.82,3.47,6.79-1.35,6.21,1.65,10.3,7.28,13.87,6.14,3.9,11.65,8.6,17.35,13,1.47,1.15,2.41,1.33,4,.08q11.24-8.73,22.7-17.21a4.52,4.52,0,0,0,2.11-4.1c-.12-4.29-.16-8.59,0-12.88a5.39,5.39,0,0,0-2.51-5c-22.52-17.14-44.94-34.37-67.46-51.52a5.74,5.74,0,0,1-2.71-5.11c.15-9.43.11-18.86,0-28.29a4.26,4.26,0,0,1,2-3.85Q90.44,444,111.2,428.62c1.72-1.26,2.77-1.3,4.52,0q20.52,15.18,41.22,30.18a4.91,4.91,0,0,1,2.4,4.46c-.12,9.76-.05,19.53-.05,29.29v3.07c-1.57-1.1-2.72-1.88-3.83-2.7-4.6-3.38-9.24-6.72-13.73-10.21a4.39,4.39,0,0,1-1.53-2.94c-.19-3.19,0-6.4-.13-9.59a3.78,3.78,0,0,0-1.11-2.65c-8.37-6.45-16.83-12.8-25.49-19.34-4.54,3.43-9,6.8-13.44,10.17-3.9,2.95-7.84,5.84-11.63,8.9a4.44,4.44,0,0,0-1.6,2.93c-.16,5-.2,9.94,0,14.9a5.11,5.11,0,0,0,2,3.26q34,26.07,68.16,52a5,5,0,0,1,2.3,4.51c-.09,9.68,0,19.36-.1,29a4.25,4.25,0,0,1-1.31,3.07q-21.84,16.75-43.83,33.33c-.14.1-.33.16-.81.4-2.41-1.8-4.94-3.65-7.44-5.54-12-9.13-24-18.29-36.12-27.36a4.78,4.78,0,0,1-2.19-4.31C67.63,563.2,67.58,552.94,67.58,541.88Z"/><path class="cls-1" d="M206.59,472.1v3.26c0,23.74,0,47.47,0,71.21a4.53,4.53,0,0,1-2.1,4.07c-5.6,4.1-11.1,8.32-17.1,12.84V508.87l-27.92,21c-6.73-5.06-13.36-10.05-20-15.05-8-6-16-12.14-24-18.14a4,4,0,0,1-1.93-3.63c.1-6.46,0-12.92,0-20,1.3.89,2.17,1.44,3,2.06,13.36,10.07,26.76,20.09,40,30.29,2.41,1.86,3.76,1.63,6-.11,13.89-10.69,27.91-21.24,41.9-31.83C205,473.11,205.54,472.79,206.59,472.1Z"/><path class="cls-1" d="M20.28,471.53c4.8,3.6,9.12,6.82,13.43,10.06Q72.5,510.8,111.3,540a4.28,4.28,0,0,1,2.07,3.82c-.12,6.48,0,13,0,20.1L39.61,508.34v54.73c-1.17-.82-1.82-1.24-2.42-1.71-3.79-2.92-7.33-6.16-11.42-8.69-4.45-2.75-5.68-6-5.62-10.77.3-22.46.13-44.93.13-67.4Z"/><text class="cls-2" transform="translate(237.27 560.82)">SAHIB MONEY</text></svg>