<svg id="Layer_1" data-name="Layer 1" xmlns="http://www.w3.org/2000/svg" viewBox="0 0 1080 1080"><defs><style>.cls-1,.cls-3{fill:none;stroke-miterlimit:10;stroke-width:40px;}.cls-1{stroke:#ea7923;}.cls-2{fill:#ea7923;}.cls-3{stroke:#1b68b2;}.cls-4{fill:#1b68b2;}.cls-5{fill:#94c9ed;}.cls-6{fill:#dcebf8;}.cls-7{fill:#036;}</style></defs><path class="cls-1" d="M264.83,363.71c58.9-72.53,150.47-118.32,252.47-116.4C662.48,250,782.9,348.52,816.79,480"/><polygon class="cls-2" points="796.75 425.23 860.72 383.36 864.05 461.06 867.39 538.75 800.09 502.93 732.79 467.1 796.75 425.23"/><path class="cls-3" d="M769.89,766.54c-56.5,71.58-144.76,118.81-245.07,121.58-144.66,4-269.39-85.68-311.9-212.14"/><polygon class="cls-4" points="166.96 684.07 167.64 606.3 233.85 645.83 300.07 685.35 233.17 723.6 166.28 761.84 166.96 684.07"/><circle class="cls-5" cx="517.8" cy="570.26" r="161.38"/><circle class="cls-3" cx="517.8" cy="570.26" r="161.38"/><circle class="cls-6" cx="517.8" cy="570.26" r="133.26"/><path class="cls-7" d="M452.85,598.4l41.57-5.13c1.93,4.1,3.62,8.16,5.71,12,2.22,4.06,5.77,7,9.61,9.48.72.47,1.14.09,1.22-.68a12.17,12.17,0,0,0,0-1.35c0-10.42,0-20.84,0-31.27,0-3.89-.35-3.22-3.37-3.82a70.84,70.84,0,0,1-15.56-4.74c-3.19-1.43-6.41-2.82-9.58-4.31a46.73,46.73,0,0,1-15.72-12.29,30.18,30.18,0,0,1-7.13-15.45,44.62,44.62,0,0,1-.87-7.68,57.24,57.24,0,0,1,2.06-13.67,45,45,0,0,1,6.27-13.36,30.55,30.55,0,0,1,7.62-7.76,77.06,77.06,0,0,1,9.48-5.7,57.59,57.59,0,0,1,15.48-4.95,41.41,41.41,0,0,1,9.66-.86c1.25.05,1.69-.5,1.66-1.7-.05-2.36,0-4.71,0-7.07,0-.53.07-1.07.11-1.72,4.79,0,9.44,0,14.09.06.3,0,.83.76.84,1.18.08,2.45.09,4.91,0,7.36,0,1.31.4,1.77,1.79,1.93,3.69.44,7.38,1,11,1.76a94.66,94.66,0,0,1,9.69,2.43,43.34,43.34,0,0,1,19.82,12.73,23.33,23.33,0,0,1,3.42,5.08c2.18,4.37,4.23,8.81,6.21,13.28.77,1.74.57,2-1.31,2.33-2.83.52-5.68.91-8.52,1.39-4.41.74-8.8,1.54-13.21,2.25-3.39.55-6.79,1-10.19,1.48-1.37.2-2.77.32-4.12.64-.93.22-1.16-.12-1.5-.9-1.72-4-3.46-8-6.88-10.92a47.33,47.33,0,0,0-5-3.51c-.19-.12-1,.21-1.06.48a5.51,5.51,0,0,0-.14,1.78c0,8.27,0,16.54,0,24.8a2.79,2.79,0,0,0,2.2,3.08c4.51,1.45,9,3,13.5,4.43a112.63,112.63,0,0,1,19.71,8,40.41,40.41,0,0,1,12.08,9.25c4.18,4.9,6.63,10.65,8.27,16.92,1.42,5.42.82,10.8.89,16.18,0,2.44-1.06,4.9-1.67,7.34a47.3,47.3,0,0,1-5.09,12.45,67,67,0,0,1-4.78,6.84c-3.86,5.08-9.14,8.37-14.89,10.74a82.37,82.37,0,0,1-13.42,4.15c-5,1.12-10.08,1.68-15.14,2.43-1.3.19-1.62,1-1.62,2.1v15c0,3.23,0,3.23-3.26,3.23H511.11c-.05-.67-.12-1.25-.12-1.83,0-5.26,0-10.52,0-15.79,0-2-.43-2.64-2.5-2.69-6.88-.18-13.38-2.16-19.78-4.37a53.25,53.25,0,0,1-16.21-9.15,55.37,55.37,0,0,1-15.65-20.74c-1.19-2.62-1.92-5.45-2.87-8.18C453.64,600.42,453.25,599.47,452.85,598.4Zm73.23,1.17c0,1.71,0,3.41,0,5.11,0,3.41,0,6.82,0,10.22,0,2.15.22,2.29,2.24,1.63a24.69,24.69,0,0,0,11.16-6.74c3.17-3.5,5-7.3,4.06-12.2a15.92,15.92,0,0,0-4.13-8.16c-3.1-3.27-7.07-5.17-11.25-6.66-1.88-.67-2.08-.5-2.09,1.48C526.07,589.36,526.08,594.46,526.08,599.57ZM511,527.65c0-3.75,0-7.5,0-11.25,0-1.77-.3-2-1.92-1.46a16.42,16.42,0,0,0-7.78,5.13,9.54,9.54,0,0,0-2.39,7.92c1,5.73,4.52,9.62,9.72,12,1.71.81,2.37.36,2.37-1.58Q511,533.06,511,527.65Z"/></svg>