<svg id="Layer_1" data-name="Layer 1" xmlns="http://www.w3.org/2000/svg" viewBox="0 0 121 94"><defs><style>.cls-1{fill:#f8bd7a;}.cls-2,.cls-3{fill:#efeaea;}.cls-3{font-size:12.36px;font-family:OCRAStd, OCR A Std;}.cls-4{fill:#000;}</style></defs><path class="cls-1" d="M74.39,60.49v-7H73.27c-5,0-10,0-15,0A12.42,12.42,0,0,1,45.91,42c0-.28,0-.57,0-.94H73.3v-3.5H45.93V35H74.36V24.87l30.87,17.81Z"/><path class="cls-1" d="M74.5,63.44c-.34-1.21.12-1.78,1.08-2.34Q90.46,52.61,105.25,44a1.73,1.73,0,0,1,2.48.27Z"/><path class="cls-2" d="M43.28,33.2V43.29L12.44,25.5,43.26,7.71v7h1.2c5,0,10,0,15,0a12.44,12.44,0,0,1,12.3,11.64c0,.23,0,.46,0,.81H44.37v3.46H71.72V33.2Z"/><path class="cls-2" d="M10,23.93,43.12,4.77c.34,1.38.3,1.5-.81,2.14l-30,17.3C11.13,24.91,11.13,24.91,10,23.93Z"/><text class="cls-3" transform="translate(10.12 74.92)">SAHIB<tspan class="cls-4" x="44.49" y="0"> </tspan><tspan class="cls-1" x="53.39" y="0">MONEY</tspan></text></svg>